<?xml version="1.0" encoding="UTF-8" standalone="no"?>
<svg width="20mm" height="20mm" viewBox="0 0 20 20" version="1.1" xmlns="http://www.w3.org/2000/svg" xmlns:svg="http://www.w3.org/2000/svg">
<path
style="fill:#000000;stroke-width:0.0100065"
d="m 8.2207229,19.967749 c 0,-0.02828 -0.3616085,-2.14607 -0.3685975,-2.158723 l -0.00784,-0.01417 -0.089506,-0.02358 C 7.3659222,17.668842 6.7585605,17.426921 6.3028697,17.192957 l -0.2014889,-0.103451 -0.093745,0.06761 c -0.2656016,0.191567 -1.7633711,1.253267 -1.7734092,1.257087 l -0.011676,0.0044 L 2.932731,17.129061 1.6429107,15.83952 1.6730347,15.79581 C 1.6896068,15.77179 1.9889959,15.350284 2.338349,14.859151 L 2.9735343,13.966201 2.8166904,13.65356 c -0.2327998,-0.464055 -0.3778426,-0.81823 -0.4961307,-1.2115 -0.02968,-0.09868 -0.056356,-0.181817 -0.059277,-0.184732 -0.00289,-0.0029 -0.5085753,-0.08915 -1.1236862,-0.191629 L 0.01921498,11.879376 0.01670627,10.047027 0.01419754,8.2146784 0.0317393,8.2095979 c 0.009642,-0.00283 0.51068126,-0.077569 1.1134088,-0.1661547 0.602727,-0.088584 1.1019947,-0.1643593 1.109483,-0.1683862 l 0.013612,-0.00732 0.043388,-0.1498681 C 2.4395245,7.2759431 2.6244779,6.815104 2.8622076,6.3459214 L 2.9744729,6.1243558 2.3099909,5.2109642 C 1.9445242,4.7085996 1.6455192,4.2950435 1.6455346,4.291951 c 0,-0.00308 0.210559,-0.2125619 0.4678715,-0.4654879 C 3.1093547,2.847497 3.8313514,2.1370425 4.0446115,1.9261306 L 4.266989,1.7062011 4.309824,1.7366701 c 0.049409,0.035151 1.4825401,1.0444598 1.6676375,1.174469 L 6.101075,2.9979624 C 6.6861497,2.6864514 7.2464162,2.4926912 7.8044976,2.2887652 l 0.00912,-0.00767 L 8.0000624,1.162633 8.1865055,0.04416889 h 1.8354345 1.835434 l 0.186545,1.09800131 c 0.102599,0.6038983 0.18856,1.1000141 0.191024,1.1024784 0.0024,0.00244 0.07643,0.027009 0.164354,0.054552 0.436634,0.1367641 0.874603,0.3176635 1.332039,0.5501891 L 13.94282,2.9568944 14.876867,2.313443 c 0.513726,-0.3538984 0.936625,-0.6434516 0.939775,-0.6434516 0.0065,0 0.172802,0.1677483 1.031595,1.0405274 1.381428,1.4039312 1.545677,1.5714325 1.548202,1.5788698 0.0015,0.00431 -0.296699,0.4192601 -0.662565,0.9221726 l -0.665205,0.9143863 0.03478,0.060682 c 0.252164,0.4399823 0.483559,0.9881284 0.629557,1.4913342 l 0.04351,0.1500005 0.0134,0.00687 c 0.781377,0.1430156 1.399233,0.2245771 2.227686,0.3758447 l 0.01253,0.00482 -0.0051,3.6634891 c -0.746183,0.121836 -1.55452,0.222882 -2.18867,0.332388 -0.198834,0.5233 -0.490038,1.247482 -0.724758,1.711632 0.434905,0.629242 0.898908,1.239015 1.32717,1.872733 -0.904942,0.914482 -1.599953,1.605942 -2.579594,2.585281 L 15.360056,18.026294 C 15.08554,17.831202 14.663851,17.531503 14.422972,17.360299 l -0.437965,-0.311283 -0.242574,0.122449 c -0.475587,0.240069 -1.003561,0.451246 -1.455095,0.582008 -0.01514,0.0044 9.64e-4,-0.08615 -0.198601,1.115267 -0.09644,0.580542 -0.177909,1.067914 -0.181042,1.083048 l -0.0056,0.02752 H 10.061419 8.2207551 Z M 10.499323,13.85257 c 1.794496,-0.244393 3.113884,-1.583655 3.337825,-3.388105 0.01714,-0.299602 0.02726,-0.6252276 -0.0052,-0.8804494 -0.241893,-1.7894618 -1.60323,-3.1325024 -3.399452,-3.3537642 -0.288469,-0.013364 -0.5497827,-0.033356 -0.82065,0 -1.7926461,0.2208213 -3.1532348,1.5595829 -3.398277,3.3437592 -0.02728,0.2651748 -0.033192,0.5537574 -0.01493,0.7827224 0.1567037,1.837951 1.5835374,3.311446 3.3881893,3.498996 0.2867058,0.02951 0.5113367,0.01499 0.8006337,0.01207 l 0.111884,-0.01523 z"/></svg>
