<?xml version="1.0" encoding="UTF-8" standalone="no"?>
<svg version="1.1" width="374.99866" height="497.91998" viewBox="0 0 374.99866 497.91998" xmlns="http://www.w3.org/2000/svg" xmlns:svg="http://www.w3.org/2000/svg">
<g transform="matrix(1.3333333,0,0,-1.3333333,0,497.91999)">
<path d="M 33.0602,2.4 H 248.188 c 16.863,0 30.66,13.7961 30.66,30.6609 V 340.38 c 0,16.864 -13.797,30.66 -30.66,30.66 H 90.6777 L 2.4,282.763 V 33.0609 C 2.4,16.1961 16.1969,2.4 33.0602,2.4" style="fill:#c7d9cc"/>
<path d="M 248.188,0 H 33.0602 C 23.9664,0 15.7004,3.71914 9.70938,9.70898 3.71875,15.7 0,23.9672 0,33.0609 V 282.763 h 3.90625e-4 c 0,0.614 0.234375375,1.228 0.702734375,1.696 l 88.250375,88.25 c 0.436,0.451 1.0477,0.731 1.7242,0.731 H 248.188 c 9.094,0 17.359,-3.719 23.351,-9.71 5.99,-5.99 9.71,-14.256 9.71,-23.35 V 33.0609 c 0,-9.0937 -3.72,-17.3609 -9.71,-23.35192 C 265.547,3.71914 257.282,0 248.188,0 Z M 33.0602,4.8 H 248.188 c 7.77,0 14.834,3.18086 19.957,8.3039 5.123,5.1223 8.303,12.1871 8.303,19.957 V 340.38 c 0,7.769 -3.18,14.834 -8.303,19.957 -5.123,5.123 -12.187,8.303 -19.957,8.303 H 91.6715 L 4.80039,281.769 V 33.0609 c 0,-7.7699 3.18008,-14.8347 8.30271,-19.957 C 18.2262,7.98086 25.291,4.8 33.0602,4.8 v 0" style="fill:#213665"/>
<path d="m 2.4,282.763 h 57.6176 c 16.8633,0 30.6601,13.796 30.6601,30.659 v 57.617 L 2.4,282.763" style="fill:#ffffff"/>
<path d="M 60.0176,280.363 H 2.4 v 0 c -0.61445,0 -1.22852,0.234 -1.696875,0.703 -0.936328,0.936 -0.936328,2.457 0,3.393 l 88.250375,88.25 c 0.436,0.451 1.0477,0.731 1.7242,0.731 1.325,0 2.4,-1.075 2.4,-2.401 v -57.617 c 0,-9.093 -3.7187,-17.359 -9.7093,-23.35 -5.9911,-5.991 -14.2571,-9.709 -23.3508,-9.709 z m -51.82385,4.8 H 60.0176 c 7.7691,0 14.8344,3.18 19.957,8.302 5.1227,5.123 8.3027,12.189 8.3027,19.957 v 51.824 L 8.19375,285.163 v 0" style="fill:#213665"/>
<path d="M 40.8816,201.7 H 240.366 c 8.923,0 16.222,-7.3 16.222,-16.221 V 99.6852 c 0,-8.9231 -7.299,-16.2231 -16.222,-16.2231 H 40.8816 c -8.9222,0 -16.2218,7.3 -16.2218,16.2231 v 85.7938 c 0,8.921 7.2996,16.221 16.2218,16.221" style="fill:#ffffff"/>
<path d="M 240.366,199.3 H 40.8816 c -3.7988,0 -7.2539,-1.555 -9.7601,-4.062 -2.5063,-2.506 -4.0617,-5.961 -4.0617,-9.759 V 99.6852 c 0,-3.7993 1.5554,-7.2543 4.0617,-9.7614 2.5062,-2.5058 5.9613,-4.0617 9.7601,-4.0617 H 240.366 c 3.799,0 7.254,1.5559 9.76,4.0617 2.506,2.5071 4.062,5.9621 4.062,9.7614 v 85.7938 c 0,3.798 -1.556,7.253 -4.062,9.759 -2.506,2.507 -5.961,4.062 -9.76,4.062 z M 40.8816,204.101 H 240.366 c 5.123,0 9.78,-2.095 13.154,-5.469 3.374,-3.374 5.468,-8.03 5.468,-13.153 V 99.6852 c 0,-5.1243 -2.094,-9.7813 -5.468,-13.1551 -3.374,-3.3742 -8.031,-5.4672 -13.154,-5.4672 H 40.8816 c -5.1234,0 -9.7796,2.093 -13.1535,5.4672 -3.3742,3.3738 -5.4683,8.0308 -5.4683,13.1551 v 85.7938 c 0,5.123 2.0941,9.779 5.4683,13.153 3.3739,3.374 8.0301,5.469 13.1535,5.469 v 0" style="fill:#213665"/>
<path d="m 109.69,152.746 c -0.595,4.811 -2.443,8.323 -5.556,10.527 -3.113,2.206 -7.6414,3.308 -13.575,3.308 -4.8317,0 -8.6356,-0.604 -11.4137,-1.815 -2.7777,-1.222 -4.8527,-2.886 -6.2359,-5.005 -1.384,-2.118 -2.0754,-4.377 -2.0754,-6.766 0,-3.632 1.3508,-6.615 4.0527,-8.96 2.6809,-2.345 7.166,-4.216 13.4567,-5.632 3.8476,-0.842 6.2906,-1.739 7.3496,-2.69 1.0593,-0.951 1.5781,-2.032 1.5781,-3.232 0,-1.265 -0.5508,-2.377 -1.6539,-3.34 -1.1129,-0.962 -2.691,-1.438 -4.734,-1.438 -2.7449,0 -4.8637,0.93 -6.3336,2.811 -0.9078,1.167 -1.5129,2.853 -1.8051,5.069 l -13.6507,-0.854 c 0.3996,-4.691 2.1187,-8.549 5.166,-11.586 3.0375,-3.048 8.5062,-4.562 16.3965,-4.562 4.4964,0 8.2253,0.649 11.1757,1.945 2.962,1.297 5.264,3.201 6.907,5.718 1.643,2.508 2.475,5.253 2.475,8.226 0,2.54 -0.627,4.831 -1.859,6.874 -1.232,2.054 -3.21,3.761 -5.923,5.144 -2.713,1.384 -7.1984,2.757 -13.4675,4.108 -2.5399,0.529 -4.1391,1.092 -4.8204,1.708 -0.6921,0.594 -1.0378,1.254 -1.0378,1.988 0,1.017 0.4214,1.881 1.2648,2.583 0.843,0.714 2.0973,1.06 3.7719,1.06 2.0215,0 3.6105,-0.476 4.7558,-1.416 1.1571,-0.952 1.9133,-2.475 2.2696,-4.561 l 13.5216,0.788" style="fill:#213665"/>
<path d="m 113.84,165.792 17.543,-46.422 h 15.542 l 17.229,46.422 h -14.57 l -10.29,-33.409 -10.451,33.409 H 113.84" style="fill:#213665"/>
<path d="m 177.2,164.333 c -4.033,-1.945 -7.091,-4.788 -9.188,-8.527 -2.086,-3.751 -3.134,-8.16 -3.134,-13.23 0,-4.81 0.962,-9.068 2.874,-12.787 1.903,-3.718 4.594,-6.517 8.075,-8.387 3.469,-1.88 7.955,-2.821 13.467,-2.821 4.475,0 8.344,0.519 11.609,1.567 3.264,1.038 7.014,3.016 11.251,5.902 v 19.79 h -22.157 v -9.651 h 9.586 v -4.378 c -1.87,-1.114 -3.544,-1.903 -5.003,-2.368 -1.449,-0.463 -2.984,-0.702 -4.583,-0.702 -3.383,0 -6.02,1.081 -7.901,3.232 -1.891,2.15 -2.843,5.739 -2.843,10.765 0,4.734 0.941,8.182 2.81,10.376 1.87,2.183 4.378,3.275 7.523,3.275 2.108,0 3.848,-0.465 5.199,-1.394 1.362,-0.93 2.335,-2.27 2.907,-4.021 l 13.835,2.465 c -0.843,3.004 -2.108,5.479 -3.783,7.425 -1.686,1.956 -3.793,3.394 -6.333,4.324 -2.551,0.929 -6.388,1.393 -11.512,1.393 -5.317,0 -9.554,-0.745 -12.699,-2.248" style="fill:#213665"/>
</g></svg>
