<?xml version="1.0" encoding="UTF-8" standalone="no"?>
<svg width="100mm" height="100mm" viewBox="-2.5 -2.5 105 105" version="1.1" xmlns="http://www.w3.org/2000/svg" xmlns:svg="http://www.w3.org/2000/svg">
<g><circle style="fill:#ffffff" cx="50" cy="50" r="50"/>
<circle style="fill:#000000" cx="54.264469" cy="27.02511" r="7.2826095" />
<path d="m 50.779062,81.379716 c 1.622942,-0.148778 2.718559,-0.411141 4.740471,-1.135183 1.230672,-0.4407 5.223738,-1.964869 5.270725,-2.011851 0.04865,-0.0487 0.872892,-3.542856 0.84278,-3.57296 -0.0153,-0.01532 -0.232851,0.05303 -0.483358,0.151849 -0.551792,0.217784 -1.222573,0.420812 -2.230995,0.675285 -1.006933,0.254093 -2.931626,0.32638 -3.954977,0.148544 -1.942917,-0.337634 -2.625263,-1.0648 -2.855185,-3.04274 -0.144409,-1.242376 0.09527,-3.193983 0.694063,-5.650731 0.135814,-0.557279 1.011979,-3.716382 1.947031,-7.020231 0.935063,-3.303849 1.765466,-6.25726 1.845364,-6.563129 0.338867,-1.29736 0.660707,-4.023201 0.660676,-5.595615 -5e-5,-2.310748 -0.764838,-4.231368 -2.283446,-5.734428 -1.289011,-1.275812 -2.897378,-2.050825 -5.097815,-2.45642 -0.540389,-0.09961 -1.090306,-0.126969 -2.569265,-0.127808 -2.059879,-8.65e-4 -2.684311,0.07414 -4.510448,0.544087 -1.428585,0.367636 -5.764555,1.878759 -7.14168,2.488938 l -0.361865,0.160335 -0.422666,1.753987 c -0.232466,0.964692 -0.407748,1.76891 -0.389494,1.787155 0.01824,0.01825 0.485273,-0.116675 1.037835,-0.299831 1.824029,-0.604582 2.299552,-0.698963 3.719035,-0.738108 2.449991,-0.06756 3.62354,0.35824 4.195136,1.522205 0.302684,0.616373 0.436674,1.397217 0.435093,2.535627 -0.003,2.099268 -0.247203,3.164449 -2.749391,11.9884 -2.012203,7.09603 -2.297332,8.39961 -2.430156,11.110477 -0.129602,2.644904 0.520858,4.584626 2.092079,6.238722 1.515426,1.595347 3.594664,2.535566 6.273218,2.836719 0.783042,0.08803 2.800423,0.09166 3.727235,0.0069 z" style="fill:#000000" /></g></svg>
