<?xml version="1.0" encoding="UTF-8" standalone="no"?>
<svg
   width="20mm"
   height="15mm"
   viewBox="0 0 20 15.000001"
   xmlns="http://www.w3.org/2000/svg"
   xmlns:svg="http://www.w3.org/2000/svg">
  <g
     id="layer1"
     transform="translate(-0.04196475,-0.04759933)">
    <path
       style="fill:#ffffff;fill-opacity:1;stroke:none;stroke-width:3.13059;stroke-linecap:butt;stroke-linejoin:round;stroke-dasharray:none;stroke-opacity:1"
       d="m 6.5453482,0.56753243 c 0,0 1.0837572,-0.90642861 2.2207125,0.0820839 C 9.8027621,1.5509702 8.9868918,2.7457974 8.912791,2.8425575 8.8386901,2.9393237 5.9529388,5.850752 5.9529388,5.850752 L 18.350985,5.865466 c 0,0 1.676693,-0.1214042 1.625329,1.7241052 -0.03547,1.2741404 -0.735758,1.5958453 -1.265788,1.662486 -0.530032,0.066651 -12.8080366,-0.033778 -12.8080366,-0.033778 0,0 2.9988406,3.0536608 3.1263929,3.2044768 0.1275705,0.1508 0.5451815,1.241422 -0.1186797,2.002232 C 8.052886,15.407501 6.6954501,14.8531 6.5872197,14.764636 6.2924129,14.523675 1.417734,9.6138928 1.0723276,9.2812936 0.8758523,9.0921126 0.13235796,8.3433525 0.13961464,7.5248588 0.14618887,6.772843 0.6762339,6.2988166 0.8524199,6.123191 1.1028351,5.8735896 6.5453607,0.56742598 6.5453607,0.56742598 Z"
       id="path113"/>
  </g>
</svg>
