<?xml version="1.0" encoding="utf-8"?>
<svg version="1.1" xmlns="http://www.w3.org/2000/svg" xmlns:xlink="http://www.w3.org/1999/xlink" viewBox="0 0 1000 1000">
<g><path d="M291.3,290.8h419.5c-3.7-43.7-21.3-77.5-61-88.2c-1-0.3-2.4-0.9-3.4-1.2c-26.2-7.5-45.9-16.7-45.9-45.4v-45c0-55.8-44.8-101-100.5-101c-55.6,0-100.5,45.2-100.5,101v45c0,28.7-18.8,37.5-45,45c-1,0.3-1.7,1.3-2.8,1.6C312,213.3,295.5,247.1,291.3,290.8z M501.1,80.8c16.6,0,30.1,13.5,30.1,30.2c0,16.7-13.5,30.3-30.1,30.3c-16.6,0-30.1-13.5-30.1-30.3C471,94.3,484.4,80.8,501.1,80.8z"/><path d="M825.8,78.8H663.9v30.6c0,23.1,20.1,41.5,42.6,41.5h81.3c14.6,0,26.4,11.9,27.2,26.6l0.2,714.7c-0.7,14.1-11.6,25.2-25.2,26.3l-577.8,0.1c-13.6-1-24.4-12.4-25.1-26.5L187,177.6c0.7-14.8,12.8-26.7,27.3-26.7h81.4c22.5,0,40.4-18.4,40.4-41.5V78.8H176.3c-33,0-60.9,27.4-60.9,61.3v787.5c0,33.9,27.9,62.4,60.9,62.4h324.7h324.7c33.1,0,58.8-28.5,58.8-62.4V140.2C884.6,106.3,858.9,78.8,825.8,78.8z"/><path d="M255.3,360.7H500v69.9H255.3V360.7z"/><path d="M255.3,780.2h349.6v69.9H255.3V780.2z"/><path d="M255.3,640.4h281.9v69.9H255.3V640.4z"/><path d="M255.3,500.5h454.5v69.9H255.3V500.5z"/></g>
</svg>
