<?xml version="1.0" encoding="utf-8"?>
<svg version="1.1" xmlns="http://www.w3.org/2000/svg" xmlns:xlink="http://www.w3.org/1999/xlink" x="0px" y="0px" viewBox="0 0 1000 1000" enable-background="new 0 0 1000 1000" xml:space="preserve">
<g transform="translate(0.000000,511.000000) scale(0.100000,-0.100000)"><path d="M335.7,2328.8c-101.6-45.6-188.6-143-217.7-246.7c-16.6-53.9-20.7-677.9-16.6-2017l6.2-1938.2l58-87.1c31.1-47.7,95.4-107.8,145.1-132.7l87.1-47.7l4550.1-6.2c3273.2-4.2,4577.1,0,4643.4,16.6c120.2,31.1,217.7,105.7,269.5,207.3c41.5,80.9,41.5,116.1,37.3,2060.5l-6.2,1977.6l-64.3,80.9c-33.2,43.5-103.6,99.5-153.4,126.4l-91.2,45.6H4999.9C601.1,2368.2,414.5,2366.1,335.7,2328.8z M1689.4,1172.1l4.2-400.1h-404.2H885.1v389.7c0,215.6,6.2,398,14.5,406.3c8.3,6.2,186.6,10.4,398,8.3l385.6-6.2L1689.4,1172.1z M2746.6,1172.1l4.2-400.1h-404.2h-404.2v389.7c0,215.6,6.2,398,14.5,406.3c8.3,6.2,186.6,10.4,398,8.3l385.6-6.2L2746.6,1172.1z M3807.9,1176.2V772h-393.9h-393.9v404.2v404.2h393.9h393.9V1176.2z M4865.1,1176.2V772h-393.9h-393.9v404.2v404.2h393.9h393.9V1176.2z M5922.3,1176.2V772h-393.9h-393.9v404.2v404.2h393.9h393.9V1176.2z M6989.9,1176.2V782.4l-398-6.2l-400.1-4.2v389.7c0,215.6,6.2,398,14.5,406.3c8.3,6.2,186.6,10.4,398,8.3l385.6-6.2V1176.2z M8053.3,1172.1l4.2-400.1h-404.2H7249v389.7c0,215.6,6.2,398,14.5,406.3c8.3,6.2,186.6,10.4,398,8.3l385.6-6.2L8053.3,1172.1z M9114.7,1176.2V772h-393.9H8327v404.2v404.2h393.9h393.9V1176.2z M2211.8,108.7v-393.9h-663.3H885.1v393.9v393.9h663.3h663.3V108.7z M3269,108.7v-393.9h-393.9h-393.9v393.9v393.9h393.9H3269V108.7z M4346.9,108.7v-393.9h-404.2h-404.2v393.9v393.9h404.2h404.2V108.7z M5404.1,108.7v-393.9h-404.2h-404.2v393.9v393.9h404.2h404.2V108.7z M6461.3,108.7v-393.9h-393.9h-393.9v393.9v393.9h393.9h393.9V108.7z M7518.5,108.7v-393.9h-393.9h-393.9v393.9v393.9h393.9h393.9V108.7z M9114.7,108.7v-393.9h-663.3H7788v393.9v393.9h663.3h663.3V108.7z M1942.3-948.5v-393.9h-528.6H885.1v393.9v393.9h528.6h528.6V-948.5z M7788-948.5v-393.9H4999.9H2211.8v393.9v393.9h2788.1H7788V-948.5z M9114.7-948.5v-393.9h-528.6h-528.6v393.9v393.9h528.6h528.6V-948.5z"/></g>
</svg>
