<?xml version="1.0" encoding="UTF-8" standalone="no"?>
<svg
   id="svg6097"
   viewBox="0 0 1750.6 1750.6"
   version="1.1"
   sodipodi:docname="moon.svg"
   width="1750.6"
   height="1750.6"
   inkscape:version="1.2.1 (9c6d41e410, 2022-07-14, custom)"
   xmlns:inkscape="http://www.inkscape.org/namespaces/inkscape"
   xmlns:sodipodi="http://sodipodi.sourceforge.net/DTD/sodipodi-0.dtd"
   xmlns="http://www.w3.org/2000/svg"
   xmlns:svg="http://www.w3.org/2000/svg">
  <defs
     id="defs13" />
  <sodipodi:namedview
     id="namedview11"
     pagecolor="#ffffff"
     bordercolor="#666666"
     borderopacity="1.0"
     inkscape:showpageshadow="2"
     inkscape:pageopacity="0.0"
     inkscape:pagecheckerboard="true"
     inkscape:deskcolor="#d1d1d1"
     showgrid="false"
     inkscape:zoom="0.49126015"
     inkscape:cx="609.65662"
     inkscape:cy="875.29999"
     inkscape:window-width="1920"
     inkscape:window-height="1036"
     inkscape:window-x="0"
     inkscape:window-y="0"
     inkscape:window-maximized="1"
     inkscape:current-layer="svg6097" />
  <g
     id="layer1"
     transform="translate(525.92627,295.9)">
    <g
       id="g6967">
      <path
         id="path6699"
         fill="#ff8000"
         d="M 891.43,-244.78 C 83.75,-474.94 -277.47,117.73 -250.17,624 -223.74,1115.3 246.36,1653.5 928.23,1381.6 39.04,854.61 381.07,-38.4 891.43,-244.8 Z" />
      <path
         id="path6887"
         fill="#ffc600"
         d="m 537.31,-233.81 c -143.26,1.2372 -287.64,41.582 -405.28,124.22 -127.76,90.157 -220.64,225.47 -270.78,373.03 -67.07,194.49 -69.136,413.03 3.5,606.22 66.392,177.79 191.22,335.14 355.66,430.78 137,79.144 301.71,107.73 458.27,85.184 36.283,-5.1688 72.089,-12.748 107.51,-22.059 -143.45,-101 -270.1,-229.2 -356.33,-382.88 -108.06,-193.31 -141.78,-428.15 -87.78,-643.44 53.16,-222.85 188.22,-425.84 375.98,-557.56 -59.766,-8.7651 -120.22,-14.22 -180.75,-13.438 z" />
    </g>
  </g>
  <g
     id="layer8"
     transform="translate(525.92627,295.9)">
    <g
       id="g6963">
      <path
         id="path6114"
         d="M 360,652.36 C 168.59,519.21 8.83,657.4 -42.49,796 c -314.04,52.68 -399.78,733.2 177.78,594.7 183.51,88.256 280.85,43.459 369.87,-32.341 305.44,77.7 570.44,-419.48 255.99,-510.05 -7.87,-322.64 -285,-266.02 -401.15,-195.99 z"
         fill="#5f8dd3" />
      <path
         id="path6673"
         d="m 552.72,645.97 c -65.281,-0.42451 -127.12,24.806 -184.53,53.438 -21.96,4.1011 -41.053,-10.784 -58.106,-22.329 -44.59,-26.62 -99.93,-38.79 -150.64,-24.17 -59.866,18.07 -107.76,64.14 -137.58,118.03 -12.239,21.96 -21.577,45.42 -28.735,69.53 -64.435,1.501 -124.29,38.442 -162.38,88.969 -60.897,79.154 -86.13,186.02 -62.375,283.62 17.244,69.368 76.851,126.35 147.2,139.79 68.251,15.498 139.69,7.5279 207.05,-8.542 14.741,-3.3253 30.155,-0.1136 43.156,7.1875 28.694,14.621 59.262,25.252 90.562,32.594 43.728,9.7631 91.282,10.454 132.97,-7.5 33.663,-13.604 63.365,-35.636 90.312,-59.406 18.824,-11.178 41.838,-5.4087 61.803,-0.7408 67.248,9.0102 135.67,-15.345 187.62,-57.614 66.069,-53.019 114.95,-130.29 124.84,-215.3 4.8253,-42.891 -8.5248,-89.77 -42.912,-117.52 -23.54,-19.65 -53.71,-28.7 -81.87,-39.6 -15.48,-11.5 -17.84,-32.85 -16.46,-50.88 -2.46,-50.75 -13.54,-103.89 -46.57,-143.91 -28.25,-31.44 -71.56,-46.45 -113.34,-45.65 z"
         fill="#aaccff" />
    </g>
  </g>
</svg>
