<?xml version="1.0" encoding="utf-8"?>
<svg version="1.1" xmlns="http://www.w3.org/2000/svg" xmlns:xlink="http://www.w3.org/1999/xlink" x="0px" y="0px" viewBox="0 0 1000 1000" enable-background="new 0 0 1000 1000" xml:space="preserve">
<g><path style="fill:#ffffff" d="M177.6,10h-77.4c-21.4,0-38.7,17.3-38.7,38.7v77.4c0,21.4,17.3,38.7,38.7,38.7h77.4c21.4,0,38.7-17.3,38.7-38.7V48.7C216.3,27.3,199,10,177.6,10z"/>
<path style="fill:#ffffff" d="M538.7,10h-77.4c-21.4,0-38.7,17.3-38.7,38.7v77.4c0,21.4,17.3,38.7,38.7,38.7h77.4c21.4,0,38.7-17.3,38.7-38.7V48.7C577.4,27.3,560.1,10,538.7,10z"/>
<path style="fill:#ffffff" d="M899.7,10h-77.4c-21.4,0-38.7,17.3-38.7,38.7v77.4c0,21.4,17.3,38.7,38.7,38.7h77.4c21.4,0,38.7-17.3,38.7-38.7V48.7C938.4,27.3,921.1,10,899.7,10z"/>
<path style="fill:#ffffff" d="M177.6,293.7h-77.4c-21.4,0-38.7,17.3-38.7,38.7v77.4c0,21.4,17.3,38.7,38.7,38.7h77.4c21.4,0,38.7-17.3,38.7-38.7v-77.4C216.3,311,199,293.7,177.6,293.7z"/>
<path style="fill:#ffffff" d="M538.7,293.7h-77.4c-21.4,0-38.7,17.3-38.7,38.7v77.4c0,21.4,17.3,38.7,38.7,38.7h77.4c21.4,0,38.7-17.3,38.7-38.7v-77.4C577.4,311,560.1,293.7,538.7,293.7z"/>
<path style="fill:#ffffff" d="M899.7,293.7h-77.4c-21.4,0-38.7,17.3-38.7,38.7v77.4c0,21.4,17.3,38.7,38.7,38.7h77.4c21.4,0,38.7-17.3,38.7-38.7v-77.4C938.4,311,921.1,293.7,899.7,293.7z"/>
<path style="fill:#ffffff" d="M177.6,577.4h-77.4c-21.4,0-38.7,17.3-38.7,38.7v77.4c0,21.4,17.3,38.7,38.7,38.7h77.4c21.4,0,38.7-17.3,38.7-38.7v-77.4C216.3,594.7,199,577.4,177.6,577.4z"/>
<path style="fill:#ffffff" d="M538.7,577.4h-77.4c-21.4,0-38.7,17.3-38.7,38.7v77.4c0,21.4,17.3,38.7,38.7,38.7h77.4c21.4,0,38.7-17.3,38.7-38.7v-77.4C577.4,594.7,560.1,577.4,538.7,577.4z"/>
<path style="fill:#ffffff" d="M899.7,577.4h-77.4c-21.4,0-38.7,17.3-38.7,38.7v77.4c0,21.4,17.3,38.7,38.7,38.7h77.4c21.4,0,38.7-17.3,38.7-38.7v-77.4C938.4,594.7,921.1,577.4,899.7,577.4z"/>
<path style="fill:#ffffff" d="M538.7,835.3h-77.4c-21.4,0-38.7,17.3-38.7,38.7v77.4c0,21.4,17.3,38.7,38.7,38.7h77.4c21.4,0,38.7-17.3,38.7-38.7v-77.4C577.4,852.6,560.1,835.3,538.7,835.3z"/></g>
</svg>
