<?xml version="1.0" encoding="UTF-8" standalone="no"?>
<svg width="99.961777mm" height="100.037mm" viewBox="0 0 99.961777 100.037" xmlns="http://www.w3.org/2000/svg" xmlns:svg="http://www.w3.org/2000/svg">
<rect x="63.850662" y="65.221672" width="14.173316" height="14.173316" rx="1.4173318" ry="1.4173318"/>
<rect x="52.512016" y="53.883018" width="11.338655" height="11.338655" rx="1.4173318" ry="1.4173318"/>
<rect x="78.023979" y="79.394989" width="11.338655" height="11.338655" rx="1.4173318" ry="1.4173318"/>
<rect x="80.85865" y="53.883018" width="8.5039902" height="8.5039902" rx="1.4173318" ry="1.4173318"/>
<rect x="52.512016" y="82.229668" width="8.5039902" height="8.5039902" rx="1.4173318" ry="1.4173318"/>
<path
 d="M 83.69331,11.363066 H 58.181338 a 5.669327,5.669327 0 0 0 -5.669326,5.669328 v 25.511972 a 5.669327,5.669327 0 0 0 5.669326,5.669327 H 83.69331 a 5.669327,5.669327 0 0 0 5.669326,-5.669327 V 17.032394 A 5.669327,5.669327 0 0 0 83.69331,11.363066 Z m -5.669328,24.09464 a 1.4173318,1.4173318 0 0 1 -1.417329,1.41733 H 65.267995 a 1.4173318,1.4173318 0 0 1 -1.417329,-1.41733 V 24.119052 a 1.4173318,1.4173318 0 0 1 1.417329,-1.417332 h 11.338658 a 1.4173318,1.4173318 0 0 1 1.417329,1.417332 z"/>
<path
 d="M 41.173357,11.363066 H 15.661386 a 5.669327,5.669327 0 0 0 -5.6693271,5.669328 v 25.511972 a 5.669327,5.669327 0 0 0 5.6693271,5.669327 h 25.511971 a 5.669327,5.669327 0 0 0 5.669327,-5.669327 V 17.032394 a 5.669327,5.669327 0 0 0 -5.669327,-5.669328 z m -5.669327,24.09464 a 1.4173318,1.4173318 0 0 1 -1.417333,1.41733 H 22.748046 a 1.4173318,1.4173318 0 0 1 -1.417331,-1.41733 V 24.119052 a 1.4173318,1.4173318 0 0 1 1.417331,-1.417332 h 11.338651 a 1.4173318,1.4173318 0 0 1 1.417333,1.417332 z"/>
<path
 d="M 41.173357,53.883019 H 15.661386 a 5.669327,5.669327 0 0 0 -5.6693271,5.669328 v 25.511971 a 5.669327,5.669327 0 0 0 5.6693271,5.669328 h 25.511971 a 5.669327,5.669327 0 0 0 5.669327,-5.669328 V 59.552347 A 5.669327,5.669327 0 0 0 41.173357,53.883019 Z M 35.50403,77.977658 a 1.4173318,1.4173318 0 0 1 -1.417333,1.417334 H 22.748046 A 1.4173318,1.4173318 0 0 1 21.330715,77.977658 V 66.639004 a 1.4173318,1.4173318 0 0 1 1.417331,-1.41733 h 11.338651 a 1.4173318,1.4173318 0 0 1 1.417333,1.41733 z"/>
<path
 d="M 0,0 V 30.329059 H 3.752374 V 3.4901533 h 26.4444 V 0 Z M 69.765,0 V 3.4901533 H 96.625957 V 30.329059 h 3.335818 V 0 Z M 0,69.707943 V 100.037 H 30.196774 V 96.204089 H 3.752374 V 69.707943 Z m 96.625957,0 V 96.204089 H 69.765 V 100.037 H 99.961775 V 69.707943 Z"/>
</svg>
