<?xml version="1.0" encoding="utf-8"?>
<svg version="1.1" xmlns="http://www.w3.org/2000/svg" xmlns:xlink="http://www.w3.org/1999/xlink" x="0px" y="0px" viewBox="0 0 1000 1000" enable-background="new 0 0 1000 1000" xml:space="preserve">
<g style="fill:#90e4b5;fill-opacity:1" transform="translate(0.000000,511.000000) scale(0.100000,-0.100000)"><path d="M4156.9,4673.2C3388,4502,2823.3,4075.4,2445.3,3383l-89.4-166.1l-143.1-17.9c-291.2-35.8-684.7-240.1-866.1-447.1c-222.3-252.9-373-600.4-388.3-901.8l-7.7-166.1l191.6-7.7l194.2-7.7l28.1,189c12.8,104.8,56.2,255.5,92,334.7c86.9,189,327,431.7,513.5,516.1c168.6,76.6,424.1,122.6,567.2,99.6l104.7-15.3l46,122.6c242.7,643.8,697.4,1090.9,1328.5,1302.9c186.5,61.3,240.1,69,600.4,69c347.5,2.5,419-5.1,587.6-56.2c815-258,1356.6-904.4,1458.8-1750c30.7-235,17.9-442-46-738.3l-12.8-71.5h204.4h207l30.6,148.2c43.4,201.8,38.3,717.9-10.2,937.6c-209.5,937.6-881.4,1640.2-1806.2,1890.5C5000,4708.9,4381.7,4724.3,4156.9,4673.2z"/><path d="M6635,4034.5c0-10.2,38.3-63.9,86.9-122.6c46-58.8,115-155.8,153.3-212c56.2-89.4,99.6-117.5,245.2-171.2c495.6-184,906.9-664.2,996.3-1167.5c17.9-92,35.8-191.6,40.9-222.3c7.7-38.3,48.6-74.1,130.3-109.8c153.3-66.4,219.7-127.7,275.9-258l46-99.6h201.8h204.4l-17.9,84.3c-40.9,207-240.2,485.4-424.1,595.3c-23,12.8-61.3,104.7-84.3,201.8c-194.2,786.9-866,1361.7-1732.1,1481.7C6688.7,4042.1,6635,4042.1,6635,4034.5z"/><path d="M720.8,18.4c342.3-799.6,646.3-1509.8,674.4-1581.4c74.1-171.2,183.9-301.5,329.6-388.3l120.1-69l3101.5-7.7c3512.8-7.7,3259.9-20.4,3477,196.7c63.9,63.9,143.1,181.4,176.3,258c30.6,76.6,337.2,792,679.6,1591.6L9900,1466.9H5000H100L720.8,18.4z M9266.4,1040.3c0-10.2-217.1-526.3-482.9-1144.5c-263.1-618.3-500.7-1177.7-523.7-1244.2c-25.5-66.4-84.3-155.8-132.8-199.3l-89.4-76.6H5000H1962.4l-89.4,76.6c-48.5,43.4-107.3,132.9-132.9,199.3c-23,66.4-255.5,615.7-516.1,1218.6c-258,605.5-477.7,1119-482.9,1144.5c-12.8,40.9,201.8,43.4,4256.2,43.4C7345.3,1058.2,9266.4,1050.5,9266.4,1040.3z"/><path d="M2511.7-2237.4c-153.3-40.9-383.2-171.2-513.5-296.3c-360.2-344.9-465-835.4-270.8-1254.4c347.4-738.3,1221.2-924.8,1806.2-385.8c419,385.8,485.4,1019.4,153.3,1469c-219.7,298.9-521.2,467.5-866.1,482.9C2705.8-2217,2567.9-2224.7,2511.7-2237.4z M3035.4-2659c150.7-51.1,286.1-166.1,373-311.7c56.2-94.5,71.5-158.4,79.2-332.1c12.8-252.9-30.6-396-168.6-549.3c-132.9-148.2-265.7-206.9-493.1-219.7c-337.2-20.4-569.7,99.6-707.7,362.8c-58.8,112.4-69,160.9-69,360.2c0,209.5,7.7,242.7,79.2,370.4c81.7,148.2,252.9,286.1,403.6,329.6C2657.3-2610.4,2910.2-2618.1,3035.4-2659z"/><path d="M6982.5-2240c-130.3-30.7-329.6-132.9-457.3-232.5c-396-314.2-541.6-901.8-329.6-1328.5c293.8-597.8,935-843.1,1499.6-574.8c516.1,245.3,784.3,812.4,625.9,1323.4C8142.3-2469.9,7544.5-2107.1,6982.5-2240z M7608.4-2712.6c245.3-138,370.4-390.9,350-700c-30.7-431.8-332.1-684.7-784.3-659.1c-227.4,12.8-360.2,71.5-493.1,219.7c-137.9,153.3-181.4,296.4-168.6,549.3c12.8,245.3,79.2,393.4,242.7,526.3c145.6,120.1,270.8,155.8,508.4,148.2C7437.2-2636,7490.9-2648.7,7608.4-2712.6z"/></g>
</svg>
