<?xml version="1.0" encoding="UTF-8" standalone="no"?>
<svg width="101.43346mm" height="100mm" viewBox="0 0 101.43346 100" version="1.1" xmlns="http://www.w3.org/2000/svg" xmlns:svg="http://www.w3.org/2000/svg">
<rect style="fill:none;stroke:none" width="100" height="100" x="0" y="0" />
<path style="fill:#000000"
d="m 53.677396,65.381832 c 0,0 -9.373583,9.429163 -11.642954,11.642955 -0.690887,2.017108 -0.04229,3.994044 1.254764,5.233209 1.254803,1.198518 3.230934,1.671466 5.112267,0.981508 3.519354,-3.492201 22.317067,-22.180737 22.317067,-22.180737 0,0 -19.520159,-19.302817 -22.038688,-21.75457 -2.025488,-1.494206 -4.37707,-0.863044 -5.707361,0.507453 -1.344996,1.385726 -1.952428,4.173296 -0.341082,5.78333 2.18566,2.239372 10.173676,10.269503 10.173676,10.269503 0,0 -28.700598,0.35526 -34.781247,0.319449 -2.640521,0.692259 -3.306006,2.440975 -3.347117,4.241551 -0.04553,1.993903 1.231348,4.312087 3.488268,4.861235 4.109644,-0.03046 35.512368,0.0951 35.512368,0.0951 z"/>
<g aria-label="a" transform="translate(0.54008741)">
<path style="fill:#000000;stroke:#000000;stroke-width:1.886"
d="m 30.953122,41.154172 c -2.45295,1.587726 -4.913153,3.406119 -7.816757,4.027088 -1.964424,0.100343 -2.562602,-2.259593 -2.867912,-3.78403 -0.432521,-3.170535 -0.185509,-6.382436 -0.251235,-9.573872 -0.02757,-4.645818 0.05644,-9.295294 -0.04441,-13.938716 -0.15907,-2.083538 -1.43757,-4.341541 -3.686046,-4.637552 -2.773325,-0.559605 -6.148339,0.06492 -7.7973011,2.562398 -0.5767317,1.412645 -0.2109861,3.255125 -2.309048,3.40746 -1.2707015,0.18238 -3.7236395,1.749415 -4.4471408,0.26117 -0.80664187,-1.289461 0.7783933,-2.440788 1.4120216,-3.451655 3.337434,-3.576826 7.9861313,-6.0321694 12.8761353,-6.5154679 3.120309,-0.3164544 6.755431,0.5558749 8.386054,3.4955759 1.474825,2.569563 0.909132,5.589562 1.023549,8.408411 0.01455,5.644565 -0.02942,11.290415 0.02256,16.934158 -0.245374,2.40456 2.396034,2.493558 3.966746,1.563239 1.137565,-0.972786 1.197013,0.323559 1.495097,1.128727 l 0.03148,0.09444 z M 20.378139,26.500783 C 16.694995,27.17031 12.761442,27.570918 9.5792728,29.706212 6.810191,31.566121 5.500303,35.416296 6.863343,38.505351 c 1.0695994,2.035171 3.68715,2.328583 5.682813,1.701404 2.985835,-0.763157 5.550803,-2.601659 7.831983,-4.610765 0.09625,0.890272 0.192491,1.780543 0.288737,2.670815 -3.207037,3.48987 -7.394673,6.514541 -12.2497402,6.923337 -3.5243217,0.164752 -7.2815189,-2.200723 -7.83043306,-5.852417 -0.53950403,-3.011038 0.0983818,-6.274807 2.12999736,-8.624318 2.5845812,-3.360836 6.7633154,-4.828672 10.7651359,-5.688945 2.279905,-0.508539 4.586077,-0.889721 6.896303,-1.230586 0,0.902302 0,1.804605 0,2.706907 z"/>
</g>
<g aria-label="b" transform="translate(0.54008741)">
<path style="fill:#000000;stroke:#000000;stroke-width:2.323"
d="m 99.731848,75.038215 c -0.127255,7.123019 -4.894763,14.398561 -11.97105,16.248131 -2.504097,0.728369 -5.127512,0.316265 -7.494848,-0.66904 -2.089178,-0.972561 -4.968408,-1.67877 -6.339957,-3.33463 -0.01311,-12.911003 0.02632,-25.822778 -0.01991,-38.733296 0.472667,-2.608288 -2.319016,-3.320324 -4.121769,-3.518895 -0.497955,-1.561228 1.235043,-1.346624 2.279293,-1.708234 1.883705,-0.46876 3.761879,-1.033918 5.462464,-1.990944 1.301998,0.560104 1.251684,1.766595 1.178786,2.941882 0,7.759381 0,15.518761 0,23.278142 2.777312,-3.305729 6.231181,-6.500802 10.582193,-7.394791 3.858374,-0.38776 7.242884,2.45745 8.733619,5.827193 1.325422,2.814624 1.703332,5.973718 1.711181,9.054482 z m -4.300976,2.676163 c 0.0087,-4.418125 -0.958131,-9.476279 -4.725224,-12.25467 -1.630874,-1.237579 -3.911164,-1.336736 -5.636942,-0.224134 -2.737199,1.255486 -4.871233,3.63967 -6.363851,6.167181 0,4.280911 0,8.561823 0,12.842735 2.764683,2.108232 6.275913,3.374327 9.763564,3.231083 4.663121,-0.459613 7.035956,-5.565833 6.962453,-9.762195 z"/>
</g></svg>
