<?xml version="1.0" encoding="UTF-8" standalone="no"?>
<svg width="100mm" height="100mm" viewBox="0 0 100 100" version="1.1" xmlns="http://www.w3.org/2000/svg" xmlns:svg="http://www.w3.org/2000/svg">
<g transform="translate(-0.09066986,2.545609)">
<path style="fill:#90e4b5"
d="m 33.43713,30.388375 c 0,0 0.03934,-13.295549 0,-16.465624 0.937782,-1.914842 2.794313,-2.854121 4.587692,-2.813186 1.734757,0.0398 3.46652,1.102711 4.308946,2.920888 0.01922,4.957918 0.09644,31.464699 0.09644,31.464699 0,0 -27.451989,-0.153684 -30.966512,-0.200902 -2.4887915,-0.375673 -3.7053123,-2.484791 -3.6768861,-4.394537 0.028824,-1.930912 1.5703898,-4.331541 3.8482481,-4.330613 3.128974,-0.03798 14.455514,-0.06776 14.455514,-0.06776 0,0 -20.0431849,-20.545594 -24.3681702,-24.81994 C 0.34477403,9.3247695 1.1107278,7.6176711 2.3548604,6.3154007 3.7325721,4.8733071 6.2746558,4.1369902 8.2588459,5.3445668 11.143274,8.2720613 33.437126,30.38836 33.437126,30.38836 Z"/>
<path
style="fill:#90e4b5"
d="m 61.068392,17.110093 v 8.973418 h 24.722246 c 2.986053,0 5.390265,2.40421 5.390265,5.390272 v 51.616918 c 0,2.986059 -2.404212,5.389983 -5.390265,5.389983 H 26.44679 c -2.986058,0 -5.389979,-2.403924 -5.389979,-5.389983 V 58.729715 H 12.14704 v 28.014466 c 0,5.933391 4.776522,10.71021 10.709918,10.71021 h 66.523507 c 5.933399,0 10.710205,-4.776819 10.710205,-10.71021 V 27.8203 c 0,-5.933392 -4.776806,-10.710207 -10.710205,-10.710207 z"/>
</g>
<rect style="fill:none;stroke:none" width="100" height="100" x="0" y="0" />
</svg>
