<?xml version="1.0" encoding="UTF-8" standalone="no"?>
<svg width="100mm" height="100mm" viewBox="0 0 100 100" version="1.1" xmlns="http://www.w3.org/2000/svg" xmlns:svg="http://www.w3.org/2000/svg">
<rect style="fill:none;stroke:none" width="100" height="100" x="0" y="0"/>
<g transform="translate(-126.38713,12.809968)">
<path style="fill:#90e4b5" d="m 216.94491,5.9385669 c 0,0 0.0393,13.2955491 0,16.4656241 0.93778,1.914842 2.79431,2.854121 4.58769,2.813186 1.73476,-0.0398 3.46652,-1.102711 4.30895,-2.920888 0.0192,-4.957918 0.0964,-31.4646991 0.0964,-31.4646991 0,0 -27.45199,0.153684 -30.96651,0.200902 -2.4888,0.375673 -3.70532,2.484791 -3.67689,4.394537 0.0288,1.930912 1.57039,4.33154101 3.84825,4.33061301 3.12897,0.03798 14.45551,0.06776 14.45551,0.06776 0,0 -20.04318,20.54559409 -24.36817,24.81994009 -1.37763,2.356631 -0.61167,4.063729 0.63246,5.365999 1.37771,1.442094 3.9198,2.178411 5.90399,0.970834 2.88442,-2.927494 25.17828,-25.0437931 25.17828,-25.0437931 z"/>
<path style="fill:#90e4b5" d="m 165.85858,3.2039759 v 8.9734181 h -24.72225 c -2.98605,0 -5.39026,2.40421 -5.39026,5.390272 v 51.616918 c 0,2.986059 2.40421,5.389983 5.39026,5.389983 h 59.34385 c 2.98606,0 5.38998,-2.403924 5.38998,-5.389983 V 44.823598 h 8.90977 v 28.014466 c 0,5.933391 -4.77652,10.71021 -10.70992,10.71021 H 137.5465 c -5.93339,0 -10.7102,-4.776819 -10.7102,-10.71021 V 13.914183 c 0,-5.9333921 4.77681,-10.7102071 10.7102,-10.7102071 z"/>
</g></svg>
