<?xml version="1.0" encoding="utf-8"?>
<svg version="1.1" xmlns="http://www.w3.org/2000/svg" x="0px" y="0px" viewBox="0 0 1000 1000">
<g transform="translate(0.000000,511.000000) scale(0.100000,-0.100000)"><path d="M4667.9,4998.9c-183.5-13.8-209.1-19.7-246.6-63.1c-33.5-39.5-57.2-153.9-136.1-668.8c-110.5-724-106.5-708.3-142.1-708.3c-59.2,0-479.4-146-649.1-226.9l-179.5-82.9l-639.2,343.3c-359.1,191.4-660.9,341.3-690.5,341.3c-59.2,0-323.5-222.9-550.4-465.6c-187.4-201.2-258.4-297.9-258.4-357.1c0-27.6,157.8-307.8,365-645.1l365-597.8l-59.2-106.5c-69.1-130.2-226.9-516.9-244.6-601.7l-13.8-61.2L893.8,909.1C442,784.8,187.5,705.9,163.8,682.2c-51.3-51.3-78.9-479.4-55.2-844.4c15.8-230.8,23.7-276.2,59.2-309.7c33.5-33.5,140.1-57.2,647.1-134.2c333.4-53.3,635.3-100.6,668.8-106.6c53.3-9.9,65.1-21.7,75-76.9c23.7-122.3,134.2-432.1,219-613.6l82.9-179.5l-343.3-637.3c-187.4-349.2-341.3-657-341.3-680.6c0-69,100.6-195.3,363-457.7c262.4-262.4,390.6-363,455.7-363c23.7,0,329.5,153.9,680.6,341.3l639.2,343.3l177.6-82.9c173.6-80.9,591.9-226.9,651-226.9c35.5,0,25.7,41.4,148-735.9c76.9-503.1,100.6-613.6,132.2-647.1c35.5-33.6,80.9-41.4,309.7-57.2c341.3-19.7,765.5,3.9,832.6,47.4c59.2,39.5,49.3-3.9,157.8,702.3c116.4,755.6,96.7,684.6,181.5,700.4c122.3,21.7,422.2,128.2,607.6,215l179.5,84.8l637.3-343.3c353.1-187.4,658.9-341.3,682.6-341.3c65.1,0,193.3,102.6,455.7,363c262.4,262.4,363,390.6,363,455.7c0,25.6-153.9,331.4-341.3,682.6l-343.3,637.3l82.9,179.5c80.9,169.7,226.9,589.9,226.9,649.1c0,35.5-15.8,31.6,700.4,140.1c337.4,51.3,631.3,106.5,655,120.3c73,45.4,88.8,163.8,88.8,599.8c0,436-17.8,554.4-88.8,599.8c-23.7,13.8-317.6,69.1-655,120.3c-716.2,108.5-700.4,104.6-700.4,140.1c0,59.2-146,479.4-226.9,651l-82.9,179.5l341.3,635.3c189.4,351.2,343.3,657,343.3,682.6c0,67.1-100.6,193.3-363,455.7c-262.4,262.4-388.6,363-455.7,363c-25.6,0-331.4-153.9-682.6-341.3l-637.3-343.3l-179.5,82.9c-171.7,80.9-589.9,226.9-649.1,226.9c-35.5,0-27.6-37.5-148,735.9c-76.9,503.1-100.6,615.5-134.2,647.1c-33.5,33.5-78.9,43.4-284.1,57.2C5025,5018.6,4967.8,5018.6,4667.9,4998.9z M5447.2,1844.2c493.2-126.3,931.2-481.4,1156.1-939.1c146-295.9,181.5-453.8,181.5-799c0-333.4-35.5-495.2-163.7-767.5C6390.2-1142.7,5970-1490,5443.3-1634c-221-59.2-658.9-59.2-883.9,2c-410.4,110.5-803,382.7-1035.8,722.1c-92.7,136.1-211.1,396.5-258.4,572.1c-61.2,224.9-63.1,660.9-2,887.8c183.5,680.6,733.9,1189.6,1430.3,1323.8C4886.9,1909.3,5244,1895.5,5447.2,1844.2z"/></g>
</svg>
