<?xml version="1.0" encoding="UTF-8" standalone="no"?>
<!-- Created with Inkscape (http://www.inkscape.org/) -->

<svg
   width="100mm"
   height="100mm"
   viewBox="0 0 100 100"
   version="1.1"
   id="svg5"
   xml:space="preserve"
   inkscape:version="1.2.2 (b0a8486541, 2022-12-01)"
   xmlns:inkscape="http://www.inkscape.org/namespaces/inkscape"
   xmlns:sodipodi="http://sodipodi.sourceforge.net/DTD/sodipodi-0.dtd"
   xmlns="http://www.w3.org/2000/svg"
   xmlns:svg="http://www.w3.org/2000/svg"><sodipodi:namedview
     id="namedview7"
     pagecolor="#ffffff"
     bordercolor="#666666"
     borderopacity="1.0"
     inkscape:showpageshadow="2"
     inkscape:pageopacity="0.0"
     inkscape:pagecheckerboard="true"
     inkscape:deskcolor="#d1d1d1"
     inkscape:document-units="mm"
     showgrid="false"
     inkscape:lockguides="false"
     inkscape:zoom="2.1896303"
     inkscape:cx="181.08079"
     inkscape:cy="206.65589"
     inkscape:window-width="1864"
     inkscape:window-height="1036"
     inkscape:window-x="56"
     inkscape:window-y="0"
     inkscape:window-maximized="1"
     inkscape:current-layer="layer1" /><defs
     id="defs2" /><g
     inkscape:label="Layer 1"
     inkscape:groupmode="layer"
     id="layer1"><circle
       style="fill:#09c578;fill-opacity:1;stroke:none;stroke-width:0.0373586;stroke-linecap:round;stroke-linejoin:bevel;stroke-opacity:1"
       id="path1429"
       cx="50.285233"
       cy="49.955093"
       r="49.753071" /><path
       id="path434"
       style="fill:#ffffff;fill-opacity:1;stroke:none;stroke-width:0.24456;stroke-opacity:1"
       d="M 50.795168,7.1386028 A 42.816423,42.816423 0 0 0 7.9784357,49.955335 42.816423,42.816423 0 0 0 50.795168,92.771575 42.816423,42.816423 0 0 0 79.608422,81.592485 l -4.505273,-4.4981 A 36.457235,36.457235 0 0 1 50.795168,86.412527 36.457235,36.457235 0 0 1 14.337489,49.955335 36.457235,36.457235 0 0 1 50.795168,13.498133 36.457235,36.457235 0 0 1 77.349579,25.014931 l 4.497628,-4.537745 A 42.816423,42.816423 0 0 0 50.795168,7.1386028 Z" /><g
       id="g1639"
       transform="matrix(0.92432349,0,0,0.92432349,-23.463458,-19.324738)"><rect
         style="fill:#fcffff;fill-opacity:1;stroke:none;stroke-width:0.03927;stroke-linecap:round;stroke-linejoin:bevel;stroke-opacity:1"
         id="rect1487-7"
         width="19.812393"
         height="5.8825178"
         x="101.97603"
         y="-21.497171"
         transform="rotate(52.696442)" /><circle
         style="fill:#fcffff;fill-opacity:1;stroke:none;stroke-width:0.0395631;stroke-linecap:round;stroke-linejoin:bevel;stroke-opacity:1"
         id="path1541-5"
         cx="127.00684"
         cy="-18.941751"
         r="6.7512093"
         transform="rotate(52.696442)" /><rect
         style="fill:#fcffff;fill-opacity:1;stroke:none;stroke-width:0.0437617;stroke-linecap:round;stroke-linejoin:bevel;stroke-opacity:1"
         id="rect1487-3-3"
         width="24.603836"
         height="5.8825178"
         x="2.314507"
         y="93.188347"
         transform="rotate(-37.303558)" /><circle
         style="fill:#fcffff;fill-opacity:1;stroke:none;stroke-width:0.0395631;stroke-linecap:round;stroke-linejoin:bevel;stroke-opacity:1"
         id="path1541-6-5"
         cx="32.852409"
         cy="96.199379"
         r="6.7512093"
         transform="rotate(-37.303558)" /></g></g></svg>
