<?xml version="1.0" encoding="UTF-8" standalone="no"?>
<svg
   height="32"
   width="32"
   version="1.1"
   id="svg72"
   sodipodi:docname="emblem-warning.svg"
   inkscape:version="1.1.1 (3bf5ae0d25, 2021-09-20, custom)"
   viewBox="0 0 32 32"
   xmlns:inkscape="http://www.inkscape.org/namespaces/inkscape"
   xmlns:sodipodi="http://sodipodi.sourceforge.net/DTD/sodipodi-0.dtd"
   xmlns="http://www.w3.org/2000/svg"
   xmlns:svg="http://www.w3.org/2000/svg">
  <defs
     id="defs76" />
  <sodipodi:namedview
     id="namedview74"
     pagecolor="#ffffff"
     bordercolor="#666666"
     borderopacity="1.0"
     inkscape:pageshadow="2"
     inkscape:pageopacity="0.0"
     inkscape:pagecheckerboard="0"
     showgrid="false"
     inkscape:zoom="13.921165"
     inkscape:cx="11.636957"
     inkscape:cy="29.02056"
     inkscape:window-width="1920"
     inkscape:window-height="1036"
     inkscape:window-x="0"
     inkscape:window-y="0"
     inkscape:window-maximized="1"
     inkscape:current-layer="svg72"
     width="32px" />
  <style
     type="text/css"
     id="current-color-scheme">
        .ColorScheme-NeutralText {
            color:#f67400;
        }
        .ColorScheme-Text {
            color:#232629;
        }
    </style>
  <path
     style="fill:currentColor;fill-opacity:1;stroke:none;stroke-width:1.99518"
     class="ColorScheme-NeutralText"
     d="M 15.977887,3.551486e-5 A 1.9951827,1.9951827 0 0 0 14.176237,1.1033716 L 0.20995804,29.03593 A 1.9951827,1.9951827 0 0 0 1.9956466,31.922959 H 29.928205 A 1.9951827,1.9951827 0 0 0 31.713893,29.03593 L 17.747614,1.1033716 A 1.9951827,1.9951827 0 0 0 15.977887,3.551486e-5 Z"
     id="path66" />
  <path
     style="fill:currentColor;fill-opacity:0.6;stroke:none;stroke-width:1.99518"
     class="ColorScheme-Text"
     d="M 15.977887,3.551486e-5 A 1.9951827,1.9951827 0 0 0 14.176237,1.1033716 L 0.20995804,29.03593 A 1.9951827,1.9951827 0 0 0 1.9956466,31.922959 H 29.928205 A 1.9951827,1.9951827 0 0 0 31.713893,29.03593 L 17.747614,1.1033716 A 1.9951827,1.9951827 0 0 0 15.977887,3.551486e-5 Z M 15.961926,1.9952182 29.928205,29.927776 H 1.9956466 Z"
     id="path68" />
  <path
     d="m 14.251606,10.163039 c -2.807913,2.661554 0,11.292014 0,11.292014 h 3.428072 c 0,0 2.807913,-8.63046 0,-11.292014 -0.808004,-0.7658877 -2.620068,-0.7658877 -3.428072,0 z"
     fill="#ffffff"
     id="path70"
     style="stroke-width:1.46647"
     sodipodi:nodetypes="sccss" />
  <path
     d="m 13.38499,23.326381 c -0.947714,0.898319 -0.947714,2.912911 0,3.811227 1.227212,1.163245 3.979407,1.163245 5.206619,0 0.947714,-0.898316 0.947714,-2.912908 0,-3.811227 -1.227212,-1.163244 -3.979407,-1.163244 -5.206619,0 z"
     style="fill:#ffffff;stroke-width:2.2273"
     id="path779" />
</svg>
