<?xml version="1.0" encoding="UTF-8" standalone="no"?>
<svg
   version="1.1"
   id="Layer_1"
   x="0px"
   y="0px"
   viewBox="0 0 502 464.00001"
   xml:space="preserve"
   width="512"
   height="473.24304"
   xmlns="http://www.w3.org/2000/svg"
   xmlns:svg="http://www.w3.org/2000/svg"><defs
   id="defs31" />
<g
   id="g26"
   transform="translate(0,-19)">
	<path
   style="fill:#50a5dc"
   d="M 122.632,388.606 C 112.55,385.129 103.719,378.752 97.249,370.274 L 80.952,348.92 c -1.807,-2.367 -2.807,-5.251 -2.855,-8.229 L 77.366,295.35 c -0.112,-6.93 4.887,-12.888 11.73,-13.983 7.326,-1.172 12.449,-7.88 11.652,-15.256 l -1.392,-12.88 c -0.418,-3.865 -2.432,-7.38 -5.555,-9.695 l -10.27,-7.614 C 74.206,229.008 62.905,225.276 51.296,225.276 h -6.779 c -2.892,0 -5.78,-0.232 -8.636,-0.693 L 12.235,220.761 C 10.772,230.649 10,240.741 10,251 c 0,81.638 47.847,152.971 119.109,191.536 l 5.029,-35.085 c 1.18,-8.228 -3.648,-16.135 -11.506,-18.845 z"
   id="path2" />
	<path
   style="fill:#50a5dc"
   d="m 465.577,316.05 -1.403,-1.733 c -3.948,-4.877 -10.547,-6.726 -16.454,-4.61 l -10.666,3.821 c -6.744,2.416 -13.953,3.249 -21.07,2.437 l -3.132,-0.358 c -16.603,-1.896 -30.932,-12.509 -37.585,-27.839 -3.781,-8.713 -4.819,-18.371 -2.975,-27.688 l 6.45,-32.595 c 1.738,-8.781 5.959,-16.878 12.163,-23.33 l 2.546,-2.648 c 10.63,-11.055 26.005,-16.193 41.145,-13.751 l 16.915,2.728 c 0.375,0.061 0.748,0.135 1.118,0.225 l 32.596,7.878 c -5.516,-20.989 -14.262,-40.814 -25.74,-58.999 l -20.491,-2.941 c -0.296,-0.042 -0.589,-0.097 -0.88,-0.164 l -22.428,-5.15 c -6.9,-1.584 -13.426,3.801 -13.181,10.876 0.131,3.77 -1.719,7.333 -4.877,9.396 l -14.522,9.484 c -3.382,2.209 -7.715,2.341 -11.225,0.341 l -20.453,-11.649 c -5.684,-3.237 -8.56,-9.828 -7.068,-16.196 l 4.602,-19.644 c 1.529,-6.527 7.263,-11.204 13.964,-11.391 l 17.329,-0.482 c 8.037,-0.224 14.418,-6.837 14.353,-14.878 L 394.49,72.633 C 354.402,45.221 304.759,29 251,29 c -14.869,0 -29.42,1.249 -43.545,3.623 8.568,5.927 15.471,14.35 19.523,24.585 l 0.568,1.435 c 1.742,4.402 2.9,9.014 3.443,13.717 l 0.504,4.364 c 1.1,9.529 -0.353,19.179 -4.209,27.962 l -5.439,12.388 c -4.349,9.906 -11.566,18.281 -20.721,24.045 l -6.776,4.266 c -3.815,2.402 -6.037,6.676 -5.812,11.179 l 0.915,18.302 c 0.38,7.597 -6.069,13.762 -13.641,13.041 -4.148,-0.395 -7.825,-2.835 -9.8,-6.504 l -8.322,-15.454 c -1.608,-2.986 -4.363,-5.189 -7.63,-6.101 l -29.409,-8.207 c -5.476,-1.528 -11.315,-1.076 -16.49,1.276 l -7.003,3.183 c -10.463,4.756 -16.127,16.225 -13.542,27.424 v 0 c 1.018,4.412 3.255,8.448 6.457,11.65 l 19.107,19.107 c 1.328,1.328 2.587,2.725 3.77,4.184 l 13.1,16.157 c 3.87,4.773 9.694,7.538 15.839,7.519 l 35.689,-0.109 c 7.246,-0.022 13.956,3.818 17.607,10.077 2.879,4.935 7.702,8.429 13.289,9.626 l 13.372,2.866 c 5.785,1.24 10.742,4.94 13.575,10.134 l 6.459,11.841 c 1.611,2.954 4.079,5.351 7.078,6.875 l 30.352,15.425 c 6.262,3.182 9.855,9.95 8.984,16.92 -0.503,4.024 -2.456,7.726 -5.493,10.413 l -11.53,10.2 c -2.039,1.804 -3.605,4.08 -4.561,6.629 l -2.512,6.7 c -1.741,4.643 -5.329,8.356 -9.909,10.255 l -12.28,5.092 c -6.689,2.773 -11.05,9.302 -11.05,16.544 0,2.896 -0.703,5.75 -2.047,8.315 l -35.003,66.774 c 18.304,4.095 37.42,6.282 57.093,6.282 96.678,0 180.045,-52.447 218.44,-128.132 l -0.581,-19.959 c -0.094,-3.232 -1.247,-6.345 -3.282,-8.859 z"
   id="path4" />
	<g
   id="g8">
		<path
   style="fill:#7ac943"
   d="m 230.956,391.627 c 0,-7.241 4.361,-13.77 11.05,-16.544 l 12.28,-5.092 c 4.58,-1.899 8.168,-5.612 9.909,-10.255 l 2.512,-6.7 c 0.956,-2.549 2.522,-4.825 4.561,-6.629 l 11.53,-10.2 c 3.037,-2.687 4.99,-6.389 5.493,-10.413 0.871,-6.97 -2.722,-13.738 -8.984,-16.92 l -30.352,-15.425 c -3,-1.524 -5.467,-3.921 -7.078,-6.875 l -6.459,-11.841 c -2.833,-5.194 -7.79,-8.895 -13.575,-10.134 l -13.372,-2.866 c -5.586,-1.197 -10.41,-4.691 -13.289,-9.626 -3.651,-6.259 -10.36,-10.099 -17.607,-10.077 l -35.689,0.109 c -6.145,0.019 -11.969,-2.746 -15.839,-7.519 l -13.1,-16.157 c -1.183,-1.459 -2.441,-2.856 -3.77,-4.184 L 90.07,195.174 c -3.201,-3.201 -5.439,-7.238 -6.457,-11.65 v 0 C 81.029,172.325 86.692,160.856 97.155,156.1 l 7.003,-3.183 c 5.175,-2.352 11.014,-2.804 16.49,-1.276 l 29.409,8.207 c 3.267,0.912 6.022,3.115 7.63,6.101 l 8.322,15.454 c 1.975,3.669 5.652,6.109 9.8,6.504 7.572,0.721 14.021,-5.444 13.641,-13.041 l -0.915,-18.302 c -0.225,-4.503 1.997,-8.777 5.812,-11.179 l 6.776,-4.266 c 9.155,-5.764 16.372,-14.139 20.721,-24.045 l 5.439,-12.388 c 3.856,-8.783 5.309,-18.433 4.209,-27.962 l -0.504,-4.364 c -0.543,-4.703 -1.7,-9.315 -3.443,-13.717 l -0.568,-1.435 C 222.926,46.973 216.022,38.55 207.454,32.623 105.722,49.726 26.298,125.663 12.235,220.76 l 23.646,3.822 c 2.855,0.461 5.743,0.693 8.636,0.693 h 6.779 c 11.609,0 22.91,3.732 32.235,10.646 l 10.27,7.614 c 3.123,2.315 5.137,5.83 5.555,9.695 l 1.392,12.88 c 0.797,7.376 -4.325,14.084 -11.652,15.256 -6.844,1.095 -11.842,7.054 -11.73,13.983 l 0.731,45.341 c 0.048,2.977 1.049,5.861 2.855,8.229 l 16.297,21.354 c 6.47,8.478 15.301,14.856 25.383,18.332 7.858,2.71 12.686,10.617 11.507,18.845 l -5.029,35.085 c 19.943,10.793 41.719,19.015 64.797,24.18 l 35.003,-66.774 c 1.343,-2.565 2.046,-5.418 2.046,-8.314 z"
   id="path6" />
	</g>
	<g
   id="g12">
		<path
   style="fill:#7ac943"
   d="m 380.255,102.065 -17.329,0.482 c -6.701,0.186 -12.435,4.864 -13.964,11.391 l -4.602,19.644 c -1.492,6.368 1.384,12.959 7.068,16.196 l 20.453,11.649 c 3.51,1.999 7.843,1.867 11.225,-0.341 l 14.522,-9.484 c 3.158,-2.063 5.008,-5.626 4.877,-9.396 -0.246,-7.075 6.281,-12.461 13.181,-10.876 l 22.428,5.15 c 0.291,0.067 0.585,0.122 0.88,0.164 l 20.491,2.941 C 442.955,113.395 420.78,90.605 394.49,72.629 l 0.118,14.557 c 0.065,8.042 -6.316,14.656 -14.353,14.879 z"
   id="path10" />
	</g>
	<g
   id="g16">
		<path
   style="fill:#7ac943"
   d="m 485.225,198.585 -32.596,-7.878 c -0.37,-0.089 -0.742,-0.164 -1.118,-0.225 l -16.915,-2.728 c -15.141,-2.442 -30.516,2.697 -41.145,13.751 l -2.546,2.648 c -6.204,6.452 -10.426,14.549 -12.163,23.33 l -6.45,32.595 c -1.844,9.317 -0.806,18.975 2.975,27.688 6.653,15.33 20.982,25.943 37.585,27.839 l 3.132,0.358 c 7.117,0.813 14.326,-0.021 21.07,-2.437 l 10.666,-3.821 c 5.907,-2.116 12.506,-0.267 16.454,4.61 l 1.403,1.733 c 2.035,2.514 3.188,5.626 3.282,8.859 l 0.581,19.959 C 483.905,316.355 492,284.551 492,251 c 0,-18.058 -2.358,-35.607 -6.775,-52.415 z"
   id="path14" />
	</g>
	<g
   id="g24">
		<path
   d="m 436.253,340.908 c -4.308,-3.453 -10.604,-2.76 -14.057,1.551 -4.57,5.704 -9.513,11.265 -14.689,16.529 -3.873,3.938 -3.819,10.27 0.118,14.142 1.947,1.915 4.48,2.87 7.011,2.87 2.588,0 5.174,-0.998 7.131,-2.988 5.649,-5.745 11.045,-11.817 16.037,-18.047 3.453,-4.31 2.759,-10.603 -1.551,-14.057 z"
   id="path18" />
		<path
   d="m 382.959,380.55 c -37.816,28.664 -83.643,45.277 -132.524,48.043 -5.514,0.312 -9.731,5.035 -9.419,10.549 0.301,5.322 4.71,9.436 9.975,9.436 0.19,0 0.381,-0.005 0.574,-0.017 52.865,-2.991 102.479,-20.998 143.477,-52.073 4.401,-3.336 5.265,-9.608 1.929,-14.01 -3.337,-4.401 -9.611,-5.266 -14.012,-1.928 z"
   id="path20" />
		<path
   d="m 494.896,196.043 c 0,-0.001 0,-0.001 -0.001,-0.002 -5.703,-21.701 -14.771,-42.49 -26.954,-61.792 C 450.62,106.806 427.806,83.297 400.134,64.375 356.719,34.69 305.149,19 251,19 235.854,19 220.646,20.266 205.797,22.762 163.712,29.837 123.986,46.969 90.917,72.306 42.309,109.549 10.853,161.751 2.342,219.297 0.788,229.808 0,240.474 0,251 c 0,41.304 11.892,81.859 34.39,117.281 21.756,34.254 52.86,62.97 89.951,83.044 0.003,0.002 0.006,0.004 0.009,0.005 21.045,11.389 43.712,19.848 67.373,25.144 19.347,4.331 39.291,6.526 59.277,6.526 48.542,0 95.643,-12.83 136.211,-37.103 39.63,-23.711 71.148,-57.083 91.147,-96.505 C 494.046,318.467 502,285.363 502,251 c 0,-18.533 -2.39,-37.023 -7.104,-54.957 z m -57.206,-69.919 -19.768,-4.54 c -6.34,-1.456 -12.854,0.085 -17.871,4.224 -5.018,4.14 -7.767,10.244 -7.541,16.746 0.01,0.269 -0.125,0.528 -0.352,0.676 l -14.521,9.484 c -0.244,0.159 -0.555,0.169 -0.808,0.024 l -20.454,-11.649 c -1.82,-1.037 -2.758,-3.186 -2.28,-5.226 l 4.602,-19.646 c 0.493,-2.104 2.346,-3.614 4.506,-3.674 l 17.329,-0.482 c 11.624,-0.323 21.299,-8.811 23.57,-19.807 12.535,10.17 23.759,21.49 33.588,33.87 z M 20,251 c 0,-6.206 0.302,-12.467 0.901,-18.71 l 13.383,2.163 c 3.37,0.545 6.813,0.822 10.232,0.822 h 6.779 c 9.397,0 18.73,3.083 26.279,8.679 l 10.271,7.614 c 0.879,0.651 1.451,1.649 1.568,2.737 l 1.392,12.88 c 0.225,2.084 -1.22,3.976 -3.289,4.307 -11.678,1.868 -20.34,12.194 -20.149,24.019 l 0.731,45.341 c 0.083,5.151 1.779,10.039 4.904,14.133 L 89.3,376.34 c 7.69,10.077 18.089,17.587 30.072,21.719 3.319,1.145 5.366,4.497 4.868,7.972 l -2.924,20.401 C 58.475,387.17 20,321.149 20,251 Z m 105.892,128.152 c -8.246,-2.843 -15.401,-8.012 -20.693,-14.946 L 88.902,342.852 c -0.514,-0.673 -0.792,-1.477 -0.806,-2.323 l -0.731,-45.34 c -0.031,-1.944 1.393,-3.641 3.312,-3.948 12.593,-2.015 21.384,-13.526 20.013,-26.206 l -1.392,-12.881 c -0.715,-6.618 -4.193,-12.688 -9.541,-16.653 L 89.486,227.887 C 78.515,219.754 64.952,215.274 51.296,215.274 h -6.779 c -2.353,0 -4.721,-0.19 -7.041,-0.565 l -13.66,-2.208 c 9.696,-48.525 37.574,-92.377 79.265,-124.32 29.386,-22.515 64.508,-38.008 101.823,-44.951 5.66,4.709 10.041,10.749 12.776,17.659 l 0.567,1.434 c 1.42,3.588 2.365,7.351 2.807,11.184 l 0.504,4.363 c 0.895,7.76 -0.292,15.643 -3.432,22.796 l -5.438,12.388 c -3.56,8.107 -9.401,14.886 -16.893,19.603 l -6.775,4.266 c -6.864,4.321 -10.877,12.039 -10.473,20.141 l 0.916,18.302 c 0.046,0.934 -0.388,1.555 -0.761,1.912 -0.373,0.356 -1.011,0.759 -1.944,0.674 -0.825,-0.078 -1.551,-0.561 -1.944,-1.29 l -8.321,-15.453 c -2.881,-5.352 -7.892,-9.359 -13.747,-10.993 l -29.41,-8.208 c -7.729,-2.157 -16.01,-1.516 -23.315,1.804 l -7.004,3.184 c -14.734,6.698 -22.787,23.006 -19.148,38.775 1.44,6.245 4.598,11.942 9.129,16.473 l 19.108,19.109 c 1.077,1.076 2.11,2.224 3.072,3.41 l 13.1,16.157 c 5.785,7.135 14.361,11.222 23.544,11.221 0.031,0 0.062,0 0.093,0 l 35.69,-0.109 c 0.011,0 0.021,0 0.032,0 3.653,0 7.064,1.958 8.906,5.116 4.285,7.347 11.513,12.583 19.831,14.366 l 13.373,2.865 c 2.94,0.63 5.452,2.505 6.892,5.146 l 6.458,11.84 c 2.589,4.747 6.506,8.552 11.327,11.002 l 30.352,15.424 c 2.496,1.269 3.939,3.987 3.592,6.765 -0.201,1.61 -0.981,3.088 -2.196,4.163 l -11.529,10.199 c -3.25,2.875 -5.774,6.543 -7.299,10.607 l -2.514,6.702 c -0.765,2.042 -2.359,3.692 -4.375,4.528 l -12.28,5.092 c -10.46,4.337 -17.22,14.457 -17.22,25.781 0,1.273 -0.313,2.543 -0.904,3.672 l -31.386,59.875 c -16.917,-4.341 -33.229,-10.451 -48.653,-18.224 l 4.025,-28.08 c 1.858,-12.955 -5.774,-25.453 -18.145,-29.719 z M 251,463 c -14.106,0 -28.186,-1.18 -42.014,-3.514 l 28.779,-54.902 c 2.087,-3.981 3.191,-8.462 3.191,-12.958 0,-3.209 1.916,-6.078 4.88,-7.307 l 12.281,-5.092 c 7.112,-2.95 12.74,-8.775 15.441,-15.981 l 2.513,-6.699 c 0.381,-1.016 1.012,-1.932 1.824,-2.651 l 11.529,-10.199 c 4.863,-4.302 7.984,-10.22 8.79,-16.661 1.391,-11.118 -4.386,-21.999 -14.376,-27.077 l -30.353,-15.424 c -1.204,-0.612 -2.183,-1.563 -2.83,-2.749 l -6.458,-11.84 c -4.232,-7.76 -11.617,-13.272 -20.259,-15.125 l -13.372,-2.865 c -2.83,-0.606 -5.289,-2.388 -6.747,-4.887 -5.415,-9.282 -15.441,-15.038 -26.182,-15.038 -0.031,0 -0.062,0 -0.093,0 l -35.689,0.109 c -0.011,0 -0.021,0 -0.032,0 -3.124,0 -6.042,-1.39 -8.009,-3.817 l -13.101,-16.157 c -1.398,-1.725 -2.901,-3.393 -4.466,-4.957 L 97.14,188.102 c -1.878,-1.877 -3.186,-4.238 -3.783,-6.826 -1.508,-6.537 1.83,-13.296 7.936,-16.072 l 7.003,-3.184 c 3.029,-1.376 6.46,-1.642 9.664,-0.748 l 29.41,8.208 c 0.644,0.18 1.195,0.621 1.513,1.21 l 8.322,15.454 c 3.567,6.624 10.167,11.004 17.657,11.718 6.5,0.621 12.939,-1.614 17.661,-6.127 4.722,-4.513 7.242,-10.844 6.916,-17.368 l -0.916,-18.302 c -0.044,-0.892 0.397,-1.741 1.153,-2.217 l 6.775,-4.266 c 10.888,-6.855 19.377,-16.706 24.55,-28.488 l 5.438,-12.388 c 4.563,-10.395 6.288,-21.85 4.987,-33.129 l -0.504,-4.363 c -0.642,-5.569 -2.015,-11.037 -4.079,-16.251 l -0.568,-1.435 c -1.917,-4.842 -4.398,-9.384 -7.368,-13.564 h 0.013 C 236.257,39.323 243.637,39 251,39 c 48.317,0 94.37,13.47 133.533,39.005 l 0.075,9.264 c 0.021,2.575 -2.057,4.728 -4.631,4.8 l -17.328,0.482 c -11.23,0.312 -20.862,8.169 -23.423,19.106 l -4.602,19.644 c -2.484,10.605 2.39,21.777 11.854,27.167 l 20.454,11.649 c 3.21,1.828 6.752,2.737 10.287,2.737 3.952,0 7.896,-1.137 11.355,-3.395 l 14.521,-9.484 c 6.051,-3.951 9.654,-10.893 9.403,-18.114 -0.004,-0.104 -0.014,-0.383 0.281,-0.626 0.298,-0.244 0.567,-0.179 0.667,-0.158 l 22.427,5.15 c 0.557,0.128 1.127,0.234 1.699,0.316 l 15.854,2.276 v 0 c 6.895,11.477 12.596,23.493 17.044,35.912 l -15.49,-3.744 c -0.618,-0.149 -1.249,-0.277 -1.878,-0.378 l -16.915,-2.728 c -18.367,-2.962 -37.045,3.276 -49.946,16.693 l -2.545,2.647 c -7.546,7.848 -12.651,17.641 -14.765,28.32 l -6.45,32.596 c -2.249,11.363 -1,22.985 3.611,33.611 8.051,18.551 25.532,31.5 45.622,33.793 l 3.134,0.358 c 8.591,0.982 17.437,-0.042 25.576,-2.958 l 10.667,-3.821 c 1.9,-0.681 4.035,-0.084 5.31,1.49 l 1.4,1.729 c 0.654,0.808 1.03,1.824 1.061,2.86 l 0.506,17.383 C 421.067,415.815 339.578,463 251,463 Z m 222.113,-153.533 -1.166,-1.441 c -4.792,-5.919 -11.933,-9.181 -19.268,-9.181 -2.788,0 -5.605,0.472 -8.331,1.448 l -10.667,3.82 c -5.272,1.889 -11.003,2.552 -16.563,1.916 l -3.133,-0.358 c -13.011,-1.485 -24.332,-9.871 -29.545,-21.884 -2.987,-6.881 -3.796,-14.408 -2.34,-21.766 l 6.45,-32.596 c 1.369,-6.916 4.675,-13.258 9.563,-18.34 l 2.545,-2.647 c 8.355,-8.688 20.449,-12.729 32.346,-10.81 l 16.913,2.728 c 0.12,0.02 0.24,0.043 0.361,0.073 l 26.693,6.451 c 3.34,14.462 5.029,29.276 5.029,44.12 0,20.028 -2.979,39.591 -8.887,58.467 z"
   id="path22"
   style="fill:#333333" />
	</g>
</g>















</svg>
