<?xml version="1.0" encoding="UTF-8" standalone="no"?>
<svg fill="#ffffff" viewBox="-7.5 0 80 80" width="65" height="80" version="1.1" xmlns="http://www.w3.org/2000/svg" xmlns:svg="http://www.w3.org/2000/svg">
<path d="M 32.5,0 C 21.112195,0 11.818182,10.066132 11.818182,22.4 v 6.4 H 5.909091 C 2.644318,28.8 0,31.664 0,35.2 V 73.6 C 0,77.136 2.644318,80 5.909091,80 H 59.090909 C 62.355682,80 65,77.136 65,73.6 V 35.2 c 0,-3.536 -2.644318,-6.4 -5.909091,-6.4 h -5.909091 v -6.4 c 0,-11.930936 -8.755556,-21.54059106 -19.63157,-22.16875011 C 33.216107,0.08547357 32.860171,0.00710143 32.5,0 Z m 0,8.4040852 c 8.194923,0 12.798997,5.1201828 12.798997,13.9959148 v 6.4 H 19.701003 v -6.4 c 0,-8.875732 4.604074,-13.9959148 12.798997,-13.9959148 z"/></svg>
